# xmcd CD database file
#
# Track frame offsets:
#	182
#	12632
#	25657
#	39152
#	52075
#	65797
#	79040
#	91750
#	106032
#	118590
#	144352
#	159837
#	176402
#	194792
#	223330
#	237402
#
# Disc length: 3333 seconds
#
# Revision: 2
# Processed by: cddbd v1.5.2PL0 Copyright (c) Steve Scherf et al.
# Submitted via: CDex 1.51
#
DISCID=d70d0310
DTITLE=Cab Calloway - Jumpin' Jive  {1938-1946}
DYEAR=1990
DGENRE=Jazz
TTITLE0=Doing The Reactionary   [1938]
TTITLE1=Skrontch   [1938]
TTITLE2=The Congo-Conga   [1938]
TTITLE3=Mr. Paganini, Swing For Minnie   [1938]
TTITLE4=Chop Chop Charlie Chan   [1940]
TTITLE5=Boog It   [1940]
TTITLE6=My Coo Coo Bird   [1941]
TTITLE7=Hard Times   [1940]
TTITLE8=15 Minutes Intermission   [1940]
TTITLE9=Cupid's Nightmare   [1940]
TTITLE10=Russian Lullaby   [1945]
TTITLE11=Lamar's Boogie   [1946]
TTITLE12=How Big Can You Get   [1946]
TTITLE13=Ain't That Something   [1946]
TTITLE14=Let's Go Joe   [1946]
TTITLE15=The Jumin' Jive   [1946]
EXTD=YEAR: 1990
EXTT0=
EXTT1=
EXTT2=
EXTT3=
EXTT4=
EXTT5=
EXTT6=
EXTT7=
EXTT8=
EXTT9=
EXTT10=
EXTT11=
EXTT12=
EXTT13=
EXTT14=
EXTT15=
PLAYORDER=
